<?xml version="1.0" encoding="iso-8859-1"?>
<!-- Generator: Adobe Illustrator 19.0.0, SVG Export Plug-In . SVG Version: 6.00 Build 0)  -->
<svg version="1.1" id="Layer_1" xmlns="http://www.w3.org/2000/svg" xmlns:xlink="http://www.w3.org/1999/xlink" x="0px" y="0px"
	 viewBox="0 0 512 512" style="enable-background:new 0 0 512 512;" xml:space="preserve">
<g>
	<g>
		<path d="M459.448,207.555l-19.426-63.119c-2.111-6.857-8.445-11.534-15.618-11.534h-80.166c-3.008,0-5.447,2.439-5.447,5.447
			v70.809c0,3.008,2.439,5.447,5.447,5.447h110.004C457.907,214.604,460.526,211.058,459.448,207.555z"/>
	</g>
</g>
<g>
	<g>
		<path d="M300.664,92.596H16.34C7.316,92.596,0,99.912,0,108.936v159.047c0,3.008,2.439,5.447,5.447,5.447h295.217
			c3.008,0,5.447-2.439,5.447-5.447V98.043C306.111,95.035,303.672,92.596,300.664,92.596z"/>
	</g>
</g>
<g>
	<g>
		<path d="M300.664,306.111H5.447c-3.008,0-5.447,2.439-5.447,5.447v53.379c0,9.024,7.316,16.34,16.34,16.34h85.201
			c6.958,22.075,27.617,38.128,51.96,38.128s45.004-16.053,51.96-38.128h95.201c3.008,0,5.447-2.439,5.447-5.447v-64.272
			C306.111,308.55,303.672,306.111,300.664,306.111z M153.502,386.723c-11.984,0-21.736-9.728-21.783-21.702
			c-0.046-12.258,10.006-21.872,21.783-21.872c11.944,0,21.828,9.789,21.783,21.872
			C175.238,376.995,165.487,386.723,153.502,386.723z"/>
	</g>
</g>
<g>
	<g>
		<path d="M506.553,247.285H344.238c-3.008,0-5.447,2.439-5.447,5.447V375.83c0,3.008,2.439,5.447,5.447,5.447h12.857
			c6.958,22.075,27.617,38.128,51.96,38.128c24.343,0,45.004-16.053,51.96-38.128h34.644c9.024,0,16.34-7.316,16.34-16.34V252.732
			C512,249.724,509.561,247.285,506.553,247.285z M409.055,386.723c-11.984,0-21.736-9.728-21.783-21.702
			c-0.044-11.783,9.546-21.872,21.783-21.872c11.936,0,21.829,9.781,21.783,21.872C430.791,376.995,421.039,386.723,409.055,386.723
			z"/>
	</g>
</g>
<g>
</g>
<g>
</g>
<g>
</g>
<g>
</g>
<g>
</g>
<g>
</g>
<g>
</g>
<g>
</g>
<g>
</g>
<g>
</g>
<g>
</g>
<g>
</g>
<g>
</g>
<g>
</g>
<g>
</g>
</svg>
